<?xml version="1.0" encoding="UTF-8" standalone="no"?>
<!-- Generator: Adobe Illustrator 19.0.0, SVG Export Plug-In . SVG Version: 6.00 Build 0)  -->

<svg
   xmlns:dc="http://purl.org/dc/elements/1.1/"
   xmlns:cc="http://creativecommons.org/ns#"
   xmlns:rdf="http://www.w3.org/1999/02/22-rdf-syntax-ns#"
   xmlns:svg="http://www.w3.org/2000/svg"
   xmlns="http://www.w3.org/2000/svg"
   xmlns:sodipodi="http://sodipodi.sourceforge.net/DTD/sodipodi-0.dtd"
   xmlns:inkscape="http://www.inkscape.org/namespaces/inkscape"
   version="1.1"
   id="Layer_1"
   x="0px"
   y="0px"
   viewBox="0 0 512 512"
   style="enable-background:new 0 0 512 512;"
   xml:space="preserve"
   inkscape:version="0.91 r13725"
   sodipodi:docname="globe_rotate.svg">
   <defs
     id="defs41" /><sodipodi:namedview
     pagecolor="#ffffff"
     bordercolor="#666666"
     borderopacity="1"
     objecttolerance="10"
     gridtolerance="10"
     guidetolerance="10"
     inkscape:pageopacity="0"
     inkscape:pageshadow="2"
     inkscape:window-width="1536"
     inkscape:window-height="801"
     id="namedview39"
     showgrid="false"
     inkscape:zoom="0.4609375"
     inkscape:cx="-361.22034"
     inkscape:cy="256"
     inkscape:window-x="-8"
     inkscape:window-y="-8"
     inkscape:window-maximized="1"
     inkscape:current-layer="Layer_1" /><path
     style="fill:#828282;fill-opacity:1"
     d="M23.833,425.949c-0.785-21.78,4.183-47.13,14.763-75.344  c22.144-59.048,66.084-123.314,123.728-180.958l-11.593-11.591C91.469,217.32,46.194,283.656,23.247,344.85  c-23.74,63.307-20.856,114.13,8.12,143.107c1.601,1.6,3.7,2.401,5.797,2.401c2.097,0,4.196-0.8,5.797-2.401  c3.201-3.201,3.201-8.391,0-11.591C31.042,464.448,24.608,447.486,23.833,425.949z"
     id="path3" /><circle
     style="fill:#000000;fill-opacity:1"
     cx="256.004"
     cy="263.327"
     r="207.654"
     id="circle5" /><path
     style="fill:#828282;fill-opacity:1"
     d="M480.632,38.691C456.015,14.074,415.625,8.3,365.211,21.674l6.935-8.175  c2.929-3.453,2.505-8.625-0.948-11.553s-8.624-2.504-11.552,0.948l-25.492,30.049c-1.774,2.09-2.385,4.928-1.628,7.562  c0.754,2.634,2.777,4.717,5.388,5.55l37.543,11.974c0.828,0.264,1.668,0.39,2.493,0.39c3.472,0,6.696-2.224,7.808-5.708  c1.376-4.313-1.005-8.925-5.318-10.3l-13.355-4.26c18.817-5.194,36.095-7.552,51.544-6.994c21.537,0.775,38.499,7.21,50.414,19.126  c11.916,11.916,18.351,28.878,19.126,50.415c0.785,21.78-4.183,47.129-14.763,75.344c-22.144,59.048-66.084,123.314-123.728,180.958  c-57.643,57.644-121.908,101.584-180.956,123.727c-28.214,10.581-53.566,15.551-75.344,14.764  c-21.537-0.775-38.499-7.21-50.414-19.126c-3.201-3.201-8.39-3.202-11.593,0c-3.201,3.201-3.201,8.391,0,11.591  c16.001,16,38.658,24.045,66.405,24.044c22.502,0,48.353-5.293,76.703-15.924c61.192-22.947,127.53-68.222,186.794-127.486  s104.538-125.6,127.484-186.794C512.492,118.489,509.608,67.666,480.632,38.691z"
     id="path7" /><g
     id="g9" /><g
     id="g11" /><g
     id="g13" /><g
     id="g15" /><g
     id="g17" /><g
     id="g19" /><g
     id="g21" /><g
     id="g23" /><g
     id="g25" /><g
     id="g27" /><g
     id="g29" /><g
     id="g31" /><g
     id="g33" /><g
     id="g35" /><g
     id="g37" /></svg>