<?xml version="1.0" encoding="UTF-8" standalone="no"?>
<!-- Generator: Adobe Illustrator 19.0.0, SVG Export Plug-In . SVG Version: 6.00 Build 0)  -->

<svg
   xmlns:dc="http://purl.org/dc/elements/1.1/"
   xmlns:cc="http://creativecommons.org/ns#"
   xmlns:rdf="http://www.w3.org/1999/02/22-rdf-syntax-ns#"
   xmlns:svg="http://www.w3.org/2000/svg"
   xmlns="http://www.w3.org/2000/svg"
   xmlns:sodipodi="http://sodipodi.sourceforge.net/DTD/sodipodi-0.dtd"
   xmlns:inkscape="http://www.inkscape.org/namespaces/inkscape"
   version="1.1"
   id="Layer_1"
   x="0px"
   y="0px"
   viewBox="0 0 512 512"
   style="enable-background:new 0 0 512 512;"
   xml:space="preserve"
   inkscape:version="0.91 r13725"
   sodipodi:docname="globe_rotate_2.svg">
   <defs
     id="defs41" /><sodipodi:namedview
     pagecolor="#ffffff"
     bordercolor="#666666"
     borderopacity="1"
     objecttolerance="10"
     gridtolerance="10"
     guidetolerance="10"
     inkscape:pageopacity="0"
     inkscape:pageshadow="2"
     inkscape:window-width="1536"
     inkscape:window-height="801"
     id="namedview39"
     showgrid="false"
     inkscape:zoom="0.4609375"
     inkscape:cx="-361.22034"
     inkscape:cy="256"
     inkscape:window-x="-8"
     inkscape:window-y="-8"
     inkscape:window-maximized="1"
     inkscape:current-layer="Layer_1" /><path
     style="fill:#828282;fill-opacity:1"
     d="m 23.833,86.05089 c -0.785,21.78 4.183,47.13 14.763,75.344 22.144,59.048 66.084,123.314 123.728,180.958 l -11.593,11.591 c -59.262,-59.264 -104.537,-125.6 -127.484,-186.794 -23.74,-63.307 -20.856,-114.13 8.12,-143.107 1.601,-1.6 3.7,-2.401 5.797,-2.401 2.097,0 4.196,0.8 5.797,2.401 3.201,3.201 3.201,8.391 0,11.591 -11.919,11.918 -18.353,28.88 -19.128,50.417 z"
     id="path3"
     inkscape:connector-curvature="0" /><circle
     style="fill:#000000;fill-opacity:1"
     cx="256.004"
     cy="-248.6729"
     r="207.65401"
     id="circle5"
     transform="scale(1,-1)" /><path
     style="fill:#828282;fill-opacity:1"
     d="m 480.632,473.30889 c -24.617,24.617 -65.007,30.391 -115.421,17.017 l 6.935,8.175 c 2.929,3.453 2.505,8.625 -0.948,11.553 -3.453,2.928 -8.624,2.504 -11.552,-0.948 l -25.492,-30.049 c -1.774,-2.09 -2.385,-4.928 -1.628,-7.562 0.754,-2.634 2.777,-4.717 5.388,-5.55 l 37.543,-11.974 c 0.828,-0.264 1.668,-0.39 2.493,-0.39 3.472,0 6.696,2.224 7.808,5.708 1.376,4.313 -1.005,8.925 -5.318,10.3 l -13.355,4.26 c 18.817,5.194 36.095,7.552 51.544,6.994 21.537,-0.775 38.499,-7.21 50.414,-19.126 11.916,-11.916 18.351,-28.878 19.126,-50.415 0.785,-21.78 -4.183,-47.129 -14.763,-75.344 -22.144,-59.048 -66.084,-123.314 -123.728,-180.958 -57.643,-57.644 -121.908,-101.584 -180.956,-123.727 -28.214,-10.581 -53.566,-15.551 -75.344,-14.764 -21.537,0.775 -38.499,7.21 -50.414,19.126 -3.201,3.201 -8.39,3.202 -11.593,0 -3.201,-3.201 -3.201,-8.391 0,-11.591 C 47.372,8.0438898 70.029,-0.00111019 97.776,-1.1018901e-4 c 22.502,0 48.353,5.29299998901 76.703,15.92400018901 61.192,22.947 127.53,68.222 186.794,127.486 59.264,59.264 104.538,125.6 127.484,186.794 23.735,63.307 20.851,114.13 -8.125,143.105 z"
     id="path7"
     inkscape:connector-curvature="0" /><g
     id="g9"
     transform="matrix(1,0,0,-1,0,511.99989)" /><g
     id="g11"
     transform="matrix(1,0,0,-1,0,511.99989)" /><g
     id="g13"
     transform="matrix(1,0,0,-1,0,511.99989)" /><g
     id="g15"
     transform="matrix(1,0,0,-1,0,511.99989)" /><g
     id="g17"
     transform="matrix(1,0,0,-1,0,511.99989)" /><g
     id="g19"
     transform="matrix(1,0,0,-1,0,511.99989)" /><g
     id="g21"
     transform="matrix(1,0,0,-1,0,511.99989)" /><g
     id="g23"
     transform="matrix(1,0,0,-1,0,511.99989)" /><g
     id="g25"
     transform="matrix(1,0,0,-1,0,511.99989)" /><g
     id="g27"
     transform="matrix(1,0,0,-1,0,511.99989)" /><g
     id="g29"
     transform="matrix(1,0,0,-1,0,511.99989)" /><g
     id="g31"
     transform="matrix(1,0,0,-1,0,511.99989)" /><g
     id="g33"
     transform="matrix(1,0,0,-1,0,511.99989)" /><g
     id="g35"
     transform="matrix(1,0,0,-1,0,511.99989)" /><g
     id="g37"
     transform="matrix(1,0,0,-1,0,511.99989)" /></svg>