<?xml version="1.0" encoding="UTF-8" standalone="no" ?>
<!DOCTYPE svg PUBLIC "-//W3C//DTD SVG 1.1//EN" "http://www.w3.org/Graphics/SVG/1.1/DTD/svg11.dtd">
<svg xmlns="http://www.w3.org/2000/svg" xmlns:xlink="http://www.w3.org/1999/xlink" version="1.1" width="1080" height="1080" viewBox="0 0 1080 1080" xml:space="preserve">
<desc>Created with Fabric.js 5.2.4</desc>
<defs>
</defs>
<g transform="matrix(1 0 0 1 540 540)" id="24acb71f-5919-47ab-9121-80304839eb14"  >
<rect style="stroke: none; stroke-width: 1; stroke-dasharray: none; stroke-linecap: butt; stroke-dashoffset: 0; stroke-linejoin: miter; stroke-miterlimit: 4; fill: rgb(255,255,255); fill-rule: nonzero; opacity: 1; visibility: hidden;" vector-effect="non-scaling-stroke"  x="-540" y="-540" rx="0" ry="0" width="1080" height="1080" />
</g>
<g transform="matrix(1 0 0 1 540 540)" id="859d227d-ffb3-4b8f-a032-c71bea23b01b"  >
</g>
<g transform="matrix(1 0 0 1 478.88 495.79)" id="Line-Copy-13"  >
<polygon style="stroke: none; stroke-width: 1; stroke-dasharray: none; stroke-linecap: butt; stroke-dashoffset: 0; stroke-linejoin: miter; stroke-miterlimit: 4; fill: rgb(0,0,0); fill-rule: nonzero; opacity: 1;" vector-effect="non-scaling-stroke"  points="-1.24,-5.49 -1.24,5.49 1.24,5.49 1.24,-5.49 " />
</g>
<g transform="matrix(1 0 0 1 464.83 495.79)" id="Line-Copy-14"  >
<polygon style="stroke: none; stroke-width: 1; stroke-dasharray: none; stroke-linecap: butt; stroke-dashoffset: 0; stroke-linejoin: miter; stroke-miterlimit: 4; fill: rgb(0,0,0); fill-rule: nonzero; opacity: 1;" vector-effect="non-scaling-stroke"  points="-1.24,-5.49 -1.24,5.49 1.24,5.49 1.24,-5.49 " />
</g>
<g transform="matrix(1 0 0 1 471.86 494.17)" id="Line-Copy-15"  >
<polygon style="stroke: none; stroke-width: 1; stroke-dasharray: none; stroke-linecap: butt; stroke-dashoffset: 0; stroke-linejoin: miter; stroke-miterlimit: 4; fill: rgb(0,0,0); fill-rule: nonzero; opacity: 1;" vector-effect="non-scaling-stroke"  points="-1.24,-3.88 -1.24,3.88 1.24,3.88 1.24,-3.88 " />
</g>
<g transform="matrix(1 0 0 1 457.8 494.17)" id="Line-Copy-20"  >
<polygon style="stroke: none; stroke-width: 1; stroke-dasharray: none; stroke-linecap: butt; stroke-dashoffset: 0; stroke-linejoin: miter; stroke-miterlimit: 4; fill: rgb(0,0,0); fill-rule: nonzero; opacity: 1;" vector-effect="non-scaling-stroke"  points="-1.24,-3.88 -1.24,3.88 1.24,3.88 1.24,-3.88 " />
</g>
<g transform="matrix(1 0 0 1 492.94 495.79)" id="Line-Copy-17"  >
<polygon style="stroke: none; stroke-width: 1; stroke-dasharray: none; stroke-linecap: butt; stroke-dashoffset: 0; stroke-linejoin: miter; stroke-miterlimit: 4; fill: rgb(0,0,0); fill-rule: nonzero; opacity: 1;" vector-effect="non-scaling-stroke"  points="-1.24,-5.49 -1.24,5.49 1.24,5.49 1.24,-5.49 " />
</g>
<g transform="matrix(1 0 0 1 485.91 494.17)" id="Line-Copy-19"  >
<polygon style="stroke: none; stroke-width: 1; stroke-dasharray: none; stroke-linecap: butt; stroke-dashoffset: 0; stroke-linejoin: miter; stroke-miterlimit: 4; fill: rgb(0,0,0); fill-rule: nonzero; opacity: 1;" vector-effect="non-scaling-stroke"  points="-1.24,-3.88 -1.24,3.88 1.24,3.88 1.24,-3.88 " />
</g>
<g transform="matrix(1 0 0 1 499.97 494.17)" id="Line-Copy-21"  >
<polygon style="stroke: none; stroke-width: 1; stroke-dasharray: none; stroke-linecap: butt; stroke-dashoffset: 0; stroke-linejoin: miter; stroke-miterlimit: 4; fill: rgb(0,0,0); fill-rule: nonzero; opacity: 1;" vector-effect="non-scaling-stroke"  points="-1.24,-3.88 -1.24,3.88 1.24,3.88 1.24,-3.88 " />
</g>
<g transform="matrix(1 0 0 1 479.96 475.4)" id="Oval-46"  >
<path style="stroke: none; stroke-width: 1; stroke-dasharray: none; stroke-linecap: butt; stroke-dashoffset: 0; stroke-linejoin: miter; stroke-miterlimit: 4; fill: rgb(0,0,0); fill-rule: nonzero; opacity: 1;" vector-effect="non-scaling-stroke"  transform=" translate(-41.07, -8.57)" d="M 41.0709748 16.9977683 C 36.4145825 16.9977683 32.6398306 13.2230164 32.6398306 8.56662405 C 32.6398306 3.91023166 36.4145825 0.1354798 41.0709748 0.1354798 C 45.7273672 0.1354798 49.5021191 3.91023166 49.5021191 8.56662405 C 49.5021191 13.2230164 45.7273672 16.9977683 41.0709748 16.9977683 Z M 41.0709748 12.4977683 C 43.2420859 12.4977683 45.0021191 10.7377351 45.0021191 8.56662405 C 45.0021191 6.39551303 43.2420859 4.6354798 41.0709748 4.6354798 C 38.8998638 4.6354798 37.1398306 6.39551303 37.1398306 8.56662405 C 37.1398306 10.7377351 38.8998638 12.4977683 41.0709748 12.4977683 Z" stroke-linecap="round" />
</g>
<g transform="matrix(NaN NaN NaN NaN 0 0)"  >
<g style=""   >
</g>
</g>
</svg>