<?xml version="1.0" encoding="UTF-8" standalone="no"?>
<svg
   width="50"
   height="50"
   viewBox="0 0 50 50"
   version="1.1"
   id="svg49"
   sodipodi:docname="measure_polygon_3.svg"
   inkscape:version="1.1.1 (3bf5ae0d25, 2021-09-20)"
   xmlns:inkscape="http://www.inkscape.org/namespaces/inkscape"
   xmlns:sodipodi="http://sodipodi.sourceforge.net/DTD/sodipodi-0.dtd"
   xmlns="http://www.w3.org/2000/svg"
   xmlns:svg="http://www.w3.org/2000/svg"
   xmlns:rdf="http://www.w3.org/1999/02/22-rdf-syntax-ns#"
   xmlns:cc="http://creativecommons.org/ns#"
   xmlns:dc="http://purl.org/dc/elements/1.1/">
  <sodipodi:namedview
     id="namedview51"
     pagecolor="#ffffff"
     bordercolor="#666666"
     borderopacity="1.0"
     inkscape:pageshadow="2"
     inkscape:pageopacity="0.0"
     inkscape:pagecheckerboard="0"
     showgrid="false"
     inkscape:zoom="8"
     inkscape:cx="7.5"
     inkscape:cy="11.5625"
     inkscape:window-width="1920"
     inkscape:window-height="1001"
     inkscape:window-x="-9"
     inkscape:window-y="-9"
     inkscape:window-maximized="1"
     inkscape:current-layer="Page-1"
     inkscape:snap-bbox="false" />
  <!-- Generator: Sketch 43.2 (39069) - http://www.bohemiancoding.com/sketch -->
  <title
     id="title31">plygon_measure</title>
  <desc
     id="desc33">Created with Sketch.</desc>
  <defs
     id="defs35" />
  <g
     id="Page-1"
     stroke="none"
     stroke-width="1"
     fill-rule="evenodd">
    <g
       id="g1688">
      <polygon
         id="Line-Copy-13"
         points="23.763771,23.466435 23.763771,34.451148 26.236229,34.451148 26.236229,23.466435 "
         style="fill-rule:nonzero"
         transform="translate(-0.25,14.75)" />
      <polygon
         id="Line-Copy-14"
         points="9.7098009,23.466435 9.7098009,34.451148 12.182259,34.451148 12.182259,23.466435 "
         style="fill-rule:nonzero"
         transform="translate(-0.25,14.75)" />
      <polygon
         id="Line-Copy-15"
         points="16.736786,23.466435 16.736786,31.22035 19.209243,31.22035 19.209243,23.466435 "
         style="fill-rule:nonzero"
         transform="translate(-0.25,14.75)" />
      <polygon
         id="Line-Copy-20"
         points="2.6828158,23.466435 2.6828158,31.22035 5.1552735,31.22035 5.1552735,23.466435 "
         style="fill-rule:nonzero"
         transform="translate(-0.25,14.75)" />
      <polygon
         id="Line-Copy-17"
         points="37.817742,23.466435 37.817742,34.451148 40.2902,34.451148 40.2902,23.466435 "
         style="fill-rule:nonzero"
         transform="translate(-0.25,14.75)" />
      <polygon
         id="Line-Copy-19"
         points="30.790755,23.466435 30.790755,31.22035 33.263213,31.22035 33.263213,23.466435 "
         style="fill-rule:nonzero"
         transform="translate(-0.25,14.75)" />
      <polygon
         id="Line-Copy-21"
         points="44.844727,23.466435 44.844727,31.22035 47.317184,31.22035 47.317184,23.466435 "
         style="fill-rule:nonzero"
         transform="translate(-0.25,14.75)" />
      <path
         d="m 18.277292,15.566476 c -4.142136,0 -7.500002,-3.357864 -7.500002,-7.4999999 0,-4.1421362 3.357866,-7.49999998 7.500002,-7.49999998 4.142134,0 7.499998,3.35786378 7.499998,7.49999998 0,4.1421359 -3.357864,7.4999999 -7.499998,7.4999999 z m 0,-4.003014 c 1.93133,0 3.496984,-1.5656549 3.496984,-3.4969859 0,-1.9313312 -1.565654,-3.4969862 -3.496984,-3.4969862 -1.931335,0 -3.496986,1.565655 -3.496986,3.4969862 0,1.931331 1.565651,3.4969859 3.496986,3.4969859 z"
         id="Oval-46"
         style="fill-rule:nonzero;stroke-width:0.889559" />
      <path
         d="M 8.5000006,36.461772 C 4.3578647,36.461772 1,33.103909 1,28.961772 c 0,-4.142136 3.3578647,-7.5 7.5000006,-7.5 4.1421374,0 7.4999994,3.357864 7.4999994,7.5 0,4.142137 -3.357862,7.500001 -7.4999994,7.5 z m 0,-4.003013 c 1.9313324,0 3.4969854,-1.565654 3.4969854,-3.496987 0,-1.931332 -1.565653,-3.496986 -3.4969854,-3.496986 -1.9313316,0 -3.4969851,1.565654 -3.4969851,3.496986 0,1.931333 1.5656535,3.496987 3.4969851,3.496987 z"
         id="Oval-46-Copy"
         style="fill-rule:nonzero;stroke-width:0.889559" />
      <polygon
         id="Line"
         points="16.736786,7.0050717 16.736786,9.4775294 33.263213,9.4775294 33.263213,7.0050717 "
         style="fill-rule:nonzero"
         transform="matrix(1.3670113,0,0,0.49016101,-8.0843406,26.40001)" />
      <polygon
         id="Line-4"
         points="16.736786,7.0050717 16.736786,9.4775294 33.263213,9.4775294 33.263213,7.0050717 "
         style="fill-rule:nonzero"
         transform="matrix(0.54650604,0,0,0.46462526,13.957855,4.3882835)" />
      <path
         d="m 36.196699,34.265074 c -2.928931,-2.928932 -2.928933,-7.677672 -1e-6,-10.606604 2.928932,-2.928932 7.67767,-2.92893 10.606604,10e-7 2.928931,2.928931 2.928931,7.677669 -3e-6,10.606603 -2.928931,2.928932 -7.677669,2.928932 -10.6066,0 z m 2.830559,-2.830559 c 1.365658,1.365659 3.579825,1.365656 4.945484,-1e-6 1.365657,-1.365657 1.365657,-3.579826 1e-6,-4.945483 -1.36566,-1.36566 -3.579827,-1.36566 -4.945485,0 -1.365659,1.365657 -1.36566,3.579826 0,4.945484 z"
         id="Oval-46-1"
         style="fill-rule:nonzero;stroke-width:0.889559" />
      <path
         d="m 31.923541,13.369776 c -2.928934,-2.928932 -2.928934,-7.677669 0,-10.6066014 2.92893,-2.92893097 7.677667,-2.92893097 10.606599,0 2.928934,2.9289324 2.928934,7.6776694 0,10.6066014 -2.928932,2.928933 -7.677666,2.928933 -10.606599,0 z m 2.830557,-2.830558 c 1.365657,1.365657 3.579828,1.365657 4.945485,0 1.365657,-1.3656579 1.365657,-3.5798279 0,-4.9454847 -1.365657,-1.3656575 -3.579825,-1.3656562 -4.945484,1.2e-6 -1.365657,1.3656576 -1.365658,3.5798256 -10e-7,4.9454835 z"
         id="Oval-46-Copy-7"
         style="fill-rule:nonzero;stroke-width:0.889559" />
      <path
         style="fill:none;stroke:#000000;stroke-width:1.35147px;stroke-linecap:butt;stroke-linejoin:miter;stroke-opacity:1"
         d="m 11.069149,26.142271 4.583143,-12.42661"
         id="path643"
         sodipodi:nodetypes="cc" />
      <path
         style="fill:none;stroke:#000000;stroke-width:1px;stroke-linecap:butt;stroke-linejoin:miter;stroke-opacity:1"
         d="M 40.5,23.625 38.25,13.375"
         id="path1591" />
    </g>
  </g>
  <metadata
     id="metadata219">
    <rdf:RDF>
      <cc:Work
         rdf:about="">
        <dc:title>plygon_measure</dc:title>
      </cc:Work>
    </rdf:RDF>
  </metadata>
</svg>