<?xml version="1.0" encoding="UTF-8" standalone="no"?>
<!-- Generator: Adobe Illustrator 16.0.0, SVG Export Plug-In . SVG Version: 6.00 Build 0)  -->

<svg
   xmlns:dc="http://purl.org/dc/elements/1.1/"
   xmlns:cc="http://creativecommons.org/ns#"
   xmlns:rdf="http://www.w3.org/1999/02/22-rdf-syntax-ns#"
   xmlns:svg="http://www.w3.org/2000/svg"
   xmlns="http://www.w3.org/2000/svg"
   xmlns:sodipodi="http://sodipodi.sourceforge.net/DTD/sodipodi-0.dtd"
   xmlns:inkscape="http://www.inkscape.org/namespaces/inkscape"
   version="1.1"
   id="Capa_1"
   x="0px"
   y="0px"
   width="486.805px"
   height="486.805px"
   viewBox="0 0 486.805 486.805"
   style="enable-background:new 0 0 486.805 486.805;"
   xml:space="preserve"
   inkscape:version="0.91 r13725"
   sodipodi:docname="rotate-right.svg">
   <defs
     id="defs39" /><sodipodi:namedview
     pagecolor="#ffffff"
     bordercolor="#666666"
     borderopacity="1"
     objecttolerance="10"
     gridtolerance="10"
     guidetolerance="10"
     inkscape:pageopacity="0"
     inkscape:pageshadow="2"
     inkscape:window-width="1536"
     inkscape:window-height="801"
     id="namedview37"
     showgrid="false"
     inkscape:zoom="0.48479371"
     inkscape:cx="-13.407765"
     inkscape:cy="243.4025"
     inkscape:window-x="-8"
     inkscape:window-y="-8"
     inkscape:window-maximized="1"
     inkscape:current-layer="Capa_1" /><g
     id="g3"
     transform="matrix(-1,0,0,1,486.804,0)"><path
       d="m 261.397,17.983 c -88.909,0 -167.372,51.302 -203.909,129.073 L 32.072,94.282 0,109.73 52.783,219.295 162.348,166.509 146.897,134.443 89.82,161.934 C 120.653,96.626 186.638,53.581 261.397,53.581 c 104.668,0 189.818,85.154 189.818,189.821 0,104.667 -85.15,189.824 -189.818,189.824 -61.631,0 -119.663,-30.109 -155.228,-80.539 l -29.096,20.521 c 42.241,59.87 111.143,95.613 184.324,95.613 124.286,0 225.407,-101.122 225.407,-225.419 0,-124.297 -101.12,-225.419 -225.407,-225.419 z"
       id="path5"
       inkscape:connector-curvature="0" /></g><g
     id="g7"
     transform="matrix(-1,0,0,1,486.804,0)" /><g
     id="g9"
     transform="matrix(-1,0,0,1,486.804,0)" /><g
     id="g11"
     transform="matrix(-1,0,0,1,486.804,0)" /><g
     id="g13"
     transform="matrix(-1,0,0,1,486.804,0)" /><g
     id="g15"
     transform="matrix(-1,0,0,1,486.804,0)" /><g
     id="g17"
     transform="matrix(-1,0,0,1,486.804,0)" /><g
     id="g19"
     transform="matrix(-1,0,0,1,486.804,0)" /><g
     id="g21"
     transform="matrix(-1,0,0,1,486.804,0)" /><g
     id="g23"
     transform="matrix(-1,0,0,1,486.804,0)" /><g
     id="g25"
     transform="matrix(-1,0,0,1,486.804,0)" /><g
     id="g27"
     transform="matrix(-1,0,0,1,486.804,0)" /><g
     id="g29"
     transform="matrix(-1,0,0,1,486.804,0)" /><g
     id="g31"
     transform="matrix(-1,0,0,1,486.804,0)" /><g
     id="g33"
     transform="matrix(-1,0,0,1,486.804,0)" /><g
     id="g35"
     transform="matrix(-1,0,0,1,486.804,0)" /></svg>