<?xml version="1.0" encoding="UTF-8" standalone="no"?>
<!-- Created with Inkscape (http://www.inkscape.org/) -->

<svg
   xmlns:dc="http://purl.org/dc/elements/1.1/"
   xmlns:cc="http://creativecommons.org/ns#"
   xmlns:rdf="http://www.w3.org/1999/02/22-rdf-syntax-ns#"
   xmlns:svg="http://www.w3.org/2000/svg"
   xmlns="http://www.w3.org/2000/svg"
   xmlns:sodipodi="http://sodipodi.sourceforge.net/DTD/sodipodi-0.dtd"
   xmlns:inkscape="http://www.inkscape.org/namespaces/inkscape"
   width="27"
   height="27"
   viewBox="0 0 27.000001 27.000001"
   id="svg7337"
   version="1.1"
   inkscape:version="0.91 r13725"
   sodipodi:docname="compass-inner.svg">
  <defs
     id="defs7339" />
  <sodipodi:namedview
     id="base"
     pagecolor="#ffffff"
     bordercolor="#666666"
     borderopacity="1.0"
     inkscape:pageopacity="0.0"
     inkscape:pageshadow="2"
     inkscape:zoom="6.0104076"
     inkscape:cx="28.754811"
     inkscape:cy="16.544038"
     inkscape:document-units="px"
     inkscape:current-layer="layer1"
     showgrid="false"
     units="px"
     inkscape:window-width="1536"
     inkscape:window-height="801"
     inkscape:window-x="-8"
     inkscape:window-y="-8"
     inkscape:window-maximized="1" />
  <g
     inkscape:label="Layer 1"
     inkscape:groupmode="layer"
     id="layer1"
     transform="translate(0,-1025.3622)">
    <g
       id="g7346"
       transform="matrix(0.03525469,0,0,0.03525469,-0.27733523,1024.7603)"
       style="fill:#800000;fill-opacity:1">
      <path
         id="path7348"
         d="m 194.321,452.726 c 0.943,0.942 2.018,1.916 3.194,2.889 44.658,43.107 103.209,66.947 165.531,66.947 0.01,0 0.01,0 0.01,0 2.403,0 4.796,-0.051 7.2,-0.12 l 0.009,0 c 0.193,0 0.386,0 0.589,-0.012 60.79,-1.998 117.931,-26.75 160.885,-69.704 42.976,-42.976 67.738,-100.116 69.727,-160.917 l 0,0 0,0 C 603.596,226.049 578.193,161.708 531.76,115.286 484.893,68.416 421.688,43.38 355.238,45.57 l 0,0 0,0 c -60.822,1.988 -117.973,26.75 -160.917,69.705 -42.964,42.965 -67.727,100.105 -69.705,160.917 0,0 0,0 0,0.01 -2.15,65.709 23.242,130.039 69.665,176.473 0.01,0.019 0.03,0.04 0.04,0.051 z m -9.967,-75.293 c -0.091,0.325 -0.244,0.68 -0.335,1.004 -13.517,-25.514 -21.336,-53.734 -22.897,-83.182 1.075,0.061 2.14,0.111 3.215,0.192 2.504,0.173 5.009,0.416 7.503,0.69 2.068,0.223 4.127,0.446 6.175,0.73 2.545,0.355 5.07,0.801 7.595,1.247 1.907,0.345 3.813,0.639 5.699,1.024 4.228,0.883 8.426,1.876 12.574,3.012 1.278,0.354 2.525,0.791 3.793,1.166 3.102,0.913 6.196,1.866 9.248,2.931 0.467,0.162 0.933,0.355 1.4,0.517 -0.538,0.832 -0.964,1.633 -1.481,2.454 -3.083,4.878 -6.003,9.694 -8.71,14.43 -0.578,1.015 -1.207,2.038 -1.774,3.042 -3.083,5.506 -5.872,10.901 -8.437,16.194 -0.629,1.288 -1.187,2.545 -1.775,3.823 -2.018,4.34 -3.863,8.599 -5.537,12.787 -0.456,1.135 -0.953,2.301 -1.379,3.427 -1.887,4.97 -3.509,9.807 -4.877,14.512 z m 88.707,-84.905 c 5.131,-6.541 10.545,-13.021 16.123,-19.46 1.673,-1.937 3.417,-3.843 5.131,-5.759 4.117,-4.634 8.346,-9.228 12.696,-13.781 1.095,-1.156 2.21,-2.302 3.316,-3.458 l 86.639,86.639 c -1.166,1.135 -2.342,2.261 -3.518,3.387 -4.502,4.289 -9.045,8.457 -13.608,12.534 -1.977,1.765 -3.955,3.56 -5.942,5.283 -6.409,5.537 -12.848,10.932 -19.349,16.012 -0.04,0.03 -0.081,0.061 -0.111,0.091 -2.87,-4.775 -5.952,-9.41 -9.136,-13.963 -0.872,-1.237 -1.795,-2.433 -2.687,-3.66 -2.729,-3.732 -5.567,-7.383 -8.508,-10.962 -1.075,-1.308 -2.139,-2.616 -3.245,-3.904 -3.894,-4.523 -7.91,-8.964 -12.148,-13.213 -4.239,-4.239 -8.68,-8.245 -13.203,-12.138 -1.298,-1.115 -2.617,-2.18 -3.915,-3.266 -3.569,-2.93 -7.22,-5.759 -10.941,-8.477 -1.227,-0.902 -2.434,-1.825 -3.681,-2.697 -4.553,-3.194 -9.188,-6.277 -13.953,-9.146 0.02,-0.021 0.02,-0.042 0.04,-0.062 z m 76.397,-79.186 c 1.785,-1.511 3.549,-3.113 5.344,-4.604 5.75,-4.756 11.509,-9.339 17.3,-13.72 0.041,-0.031 0.07,-0.051 0.111,-0.081 2.84,4.664 5.882,9.197 9.025,13.659 0.873,1.237 1.805,2.434 2.698,3.651 2.656,3.62 5.415,7.159 8.275,10.617 1.074,1.308 2.149,2.616 3.254,3.903 3.823,4.421 7.747,8.761 11.895,12.919 4.157,4.158 8.508,8.092 12.938,11.916 1.257,1.084 2.545,2.129 3.822,3.184 3.51,2.9 7.099,5.699 10.77,8.396 1.176,0.862 2.323,1.754 3.519,2.596 4.462,3.154 9.006,6.195 13.689,9.035 -0.021,0.031 -0.04,0.061 -0.071,0.092 -4.38,5.8 -8.974,11.581 -13.739,17.34 -1.501,1.795 -3.103,3.569 -4.625,5.364 -3.346,3.924 -6.691,7.838 -10.2,11.732 -0.385,0.426 -0.812,0.852 -1.196,1.277 L 336.419,224.76 c 0.426,-0.375 0.832,-0.791 1.257,-1.167 3.903,-3.528 7.847,-6.895 11.782,-10.251 z m 54.777,-40.409 c 3.712,-2.292 7.383,-4.502 10.993,-6.561 1.49,-0.852 2.939,-1.603 4.41,-2.413 2.708,-1.481 5.395,-2.941 8.031,-4.27 1.632,-0.832 3.214,-1.582 4.817,-2.353 2.413,-1.166 4.806,-2.281 7.139,-3.315 1.612,-0.71 3.193,-1.379 4.766,-2.028 2.271,-0.933 4.481,-1.795 6.672,-2.596 1.5,-0.547 3.002,-1.085 4.462,-1.572 2.181,-0.73 4.299,-1.349 6.388,-1.937 1.339,-0.376 2.688,-0.781 3.976,-1.096 2.231,-0.537 4.34,-0.933 6.449,-1.297 1.015,-0.172 2.089,-0.416 3.084,-0.548 3.021,-0.416 5.92,-0.659 8.617,-0.659 7.444,0 12.798,1.603 15.962,4.756 0.69,0.7 1.317,1.521 1.866,2.444 0.182,0.304 0.314,0.679 0.476,1.014 0.335,0.659 0.659,1.328 0.933,2.079 0.152,0.456 0.274,0.973 0.397,1.46 0.202,0.74 0.405,1.471 0.547,2.282 0.101,0.568 0.162,1.187 0.243,1.795 0.091,0.821 0.183,1.653 0.222,2.545 0.042,0.669 0.042,1.389 0.042,2.099 0,0.913 -0.011,1.856 -0.061,2.83 -0.041,0.781 -0.102,1.582 -0.184,2.393 -0.08,1.004 -0.202,2.038 -0.345,3.103 -0.121,0.862 -0.242,1.744 -0.406,2.647 -0.182,1.105 -0.405,2.261 -0.647,3.427 -0.203,0.933 -0.396,1.876 -0.63,2.84 -0.283,1.216 -0.628,2.484 -0.974,3.751 -0.263,1.014 -0.526,2.008 -0.841,3.042 -0.396,1.349 -0.862,2.738 -1.327,4.138 -0.336,1.034 -0.649,2.048 -1.035,3.113 -0.548,1.541 -1.166,3.143 -1.785,4.746 -0.386,0.994 -0.73,1.967 -1.136,2.981 -0.832,2.039 -1.743,4.147 -2.696,6.277 -0.274,0.638 -0.519,1.237 -0.813,1.886 -1.257,2.768 -2.615,5.607 -4.066,8.507 -0.476,0.974 -1.034,1.988 -1.541,2.972 -1.024,1.987 -2.059,3.984 -3.173,6.033 -0.65,1.187 -1.37,2.413 -2.05,3.62 -1.074,1.906 -2.14,3.803 -3.284,5.739 -0.782,1.328 -1.624,2.688 -2.445,4.026 -0.8,1.329 -1.632,2.657 -2.474,4.005 -0.101,-0.061 -0.212,-0.111 -0.314,-0.172 -0.507,-0.304 -0.993,-0.649 -1.501,-0.954 -3.772,-2.291 -7.452,-4.715 -11.053,-7.24 -1.278,-0.893 -2.524,-1.826 -3.772,-2.748 -2.92,-2.149 -5.779,-4.381 -8.589,-6.682 -1.165,-0.964 -2.343,-1.907 -3.487,-2.89 -3.783,-3.265 -7.494,-6.622 -11.042,-10.171 -3.551,-3.549 -6.905,-7.261 -10.172,-11.053 -0.983,-1.135 -1.917,-2.302 -2.87,-3.458 -2.312,-2.809 -4.563,-5.689 -6.712,-8.62 -0.913,-1.247 -1.846,-2.484 -2.729,-3.742 -2.524,-3.589 -4.929,-7.26 -7.21,-11.023 -0.324,-0.527 -0.689,-1.034 -1.004,-1.571 -0.07,-0.111 -0.111,-0.224 -0.182,-0.334 0.07,-0.041 0.141,-0.092 0.213,-0.142 0.619,-0.386 1.217,-0.72 1.845,-1.105 z m 106.808,78.912 c 1.654,-2.87 3.226,-5.719 4.757,-8.539 0.527,-0.994 1.104,-1.998 1.622,-2.981 1.978,-3.762 3.833,-7.473 5.567,-11.134 0.436,-0.923 0.812,-1.814 1.236,-2.738 1.258,-2.738 2.464,-5.456 3.59,-8.132 0.537,-1.299 1.025,-2.565 1.531,-3.844 0.913,-2.281 1.766,-4.533 2.566,-6.753 0.476,-1.328 0.922,-2.636 1.368,-3.955 0.729,-2.18 1.391,-4.319 2.008,-6.449 0.366,-1.227 0.739,-2.454 1.055,-3.651 0.649,-2.393 1.197,-4.746 1.703,-7.068 0.183,-0.841 0.415,-1.713 0.589,-2.545 0.021,-0.163 0.081,-0.334 0.102,-0.497 15.554,27.065 24.528,57.395 26.223,89.174 -1.156,-0.061 -2.313,-0.121 -3.469,-0.203 -2.545,-0.192 -5.09,-0.436 -7.625,-0.71 -2.129,-0.243 -4.249,-0.477 -6.368,-0.781 -2.657,-0.375 -5.314,-0.852 -7.949,-1.338 -1.887,-0.345 -3.783,-0.639 -5.659,-1.035 -4.31,-0.913 -8.589,-1.967 -12.827,-3.163 -1.48,-0.416 -2.931,-0.923 -4.411,-1.369 -3.011,-0.923 -6.023,-1.875 -8.984,-2.931 -0.587,-0.213 -1.176,-0.457 -1.764,-0.68 0.911,-1.49 1.744,-2.951 2.615,-4.42 0.851,-1.418 1.703,-2.848 2.524,-4.258 z M 319.118,398.972 c -3.012,1.906 -6.023,3.792 -8.984,5.546 -1.785,1.065 -3.549,2.039 -5.324,3.043 -2.728,1.551 -5.425,3.072 -8.102,4.481 -1.805,0.954 -3.59,1.855 -5.375,2.749 -2.556,1.276 -5.09,2.503 -7.585,3.649 -1.744,0.812 -3.467,1.582 -5.171,2.313 -2.454,1.054 -4.837,2.018 -7.199,2.92 -1.623,0.618 -3.245,1.248 -4.817,1.795 -2.373,0.831 -4.665,1.541 -6.926,2.21 -1.42,0.416 -2.88,0.882 -4.249,1.237 -2.414,0.619 -4.695,1.065 -6.957,1.481 -1.085,0.203 -2.231,0.486 -3.275,0.639 -3.235,0.466 -6.327,0.74 -9.188,0.74 -1.845,0 -3.569,-0.102 -5.172,-0.295 -0.567,-0.07 -1.014,-0.222 -1.551,-0.313 -0.963,-0.174 -1.977,-0.325 -2.829,-0.577 -0.822,-0.245 -1.481,-0.589 -2.201,-0.904 -0.457,-0.203 -0.984,-0.344 -1.389,-0.577 -0.771,-0.426 -1.379,-0.953 -1.998,-1.48 -0.416,-0.457 -0.873,-0.883 -1.339,-1.287 -0.517,-0.599 -1.024,-1.198 -1.45,-1.918 -0.193,-0.325 -0.325,-0.729 -0.507,-1.085 -0.345,-0.698 -0.69,-1.409 -0.964,-2.21 -0.172,-0.486 -0.273,-1.044 -0.415,-1.562 -0.203,-0.782 -0.406,-1.553 -0.548,-2.413 -0.102,-0.609 -0.152,-1.278 -0.223,-1.938 -0.081,-0.861 -0.172,-1.745 -0.203,-2.677 -0.03,-0.73 -0.01,-1.502 0,-2.262 0.021,-0.973 0.041,-1.957 0.111,-2.991 0.051,-0.831 0.142,-1.684 0.234,-2.556 0.121,-1.074 0.263,-2.169 0.436,-3.295 0.143,-0.924 0.314,-1.876 0.486,-2.829 0.224,-1.177 0.477,-2.373 0.761,-3.6 0.223,-1.015 0.466,-2.039 0.74,-3.093 0.335,-1.277 0.7,-2.585 1.085,-3.914 0.324,-1.084 0.649,-2.18 1.004,-3.306 0.446,-1.389 0.943,-2.829 1.45,-4.269 0.406,-1.146 0.791,-2.282 1.237,-3.458 0.578,-1.531 1.217,-3.113 1.866,-4.695 0.487,-1.176 0.933,-2.322 1.44,-3.529 0.75,-1.724 1.571,-3.509 2.393,-5.283 0.517,-1.136 0.994,-2.241 1.542,-3.387 1.064,-2.211 2.221,-4.483 3.397,-6.764 0.405,-0.791 0.761,-1.552 1.187,-2.353 1.643,-3.124 3.407,-6.317 5.273,-9.582 0.365,-0.649 0.791,-1.329 1.177,-1.988 1.53,-2.626 3.103,-5.273 4.775,-7.99 0.679,-1.085 1.43,-2.221 2.119,-3.327 1.228,-1.926 2.475,-3.863 3.763,-5.82 0.233,0.132 0.497,0.243 0.72,0.385 0.892,0.527 1.744,1.105 2.637,1.643 3.519,2.14 6.976,4.381 10.364,6.723 1.338,0.933 2.656,1.896 3.975,2.86 2.991,2.19 5.911,4.461 8.781,6.814 1.176,0.973 2.373,1.916 3.539,2.91 3.894,3.346 7.697,6.794 11.347,10.435 3.63,3.63 7.057,7.422 10.384,11.296 1.034,1.206 2.028,2.454 3.032,3.681 2.302,2.819 4.532,5.689 6.683,8.619 0.994,1.359 1.987,2.708 2.94,4.087 2.332,3.357 4.553,6.794 6.673,10.282 0.547,0.902 1.135,1.765 1.663,2.667 0.142,0.233 0.253,0.477 0.385,0.71 -0.263,0.172 -0.547,0.375 -0.811,0.558 -1.622,1.066 -3.224,2.029 -4.847,3.054 z m -46.859,62.808 c 3.083,-0.954 6.217,-2.019 9.4,-3.185 2.211,-0.811 4.442,-1.643 6.713,-2.565 3.306,-1.338 6.672,-2.817 10.069,-4.37 2.261,-1.034 4.502,-2.037 6.804,-3.164 3.64,-1.785 7.341,-3.762 11.073,-5.77 2.16,-1.166 4.29,-2.251 6.469,-3.499 4.36,-2.473 8.782,-5.191 13.233,-7.969 1.43,-0.894 2.809,-1.644 4.25,-2.565 0.162,0.445 0.334,0.881 0.487,1.317 1.216,3.458 2.312,6.956 3.326,10.475 0.243,0.812 0.527,1.612 0.75,2.434 1.197,4.342 2.231,8.721 3.144,13.132 0.264,1.299 0.466,2.607 0.709,3.914 0.578,3.154 1.125,6.318 1.562,9.502 0.224,1.643 0.406,3.297 0.588,4.948 0.325,2.911 0.598,5.831 0.801,8.762 0.071,0.902 0.112,1.815 0.162,2.728 -29.407,-1.592 -57.628,-9.45 -83.121,-22.906 1.158,-0.336 2.405,-0.853 3.581,-1.219 z m 115.956,22.877 c -0.041,-0.994 -0.203,-1.967 -0.274,-2.95 -0.304,-4.676 -0.74,-9.329 -1.318,-13.964 -0.173,-1.399 -0.294,-2.799 -0.498,-4.188 -0.832,-5.851 -1.865,-11.661 -3.123,-17.431 -0.264,-1.229 -0.598,-2.444 -0.882,-3.662 -1.096,-4.674 -2.322,-9.307 -3.702,-13.902 -0.487,-1.632 -0.973,-3.254 -1.5,-4.877 -1.643,-5.101 -3.417,-10.14 -5.395,-15.119 -0.193,-0.466 -0.325,-0.963 -0.518,-1.43 1.227,-0.933 2.444,-1.926 3.661,-2.879 1.623,-1.258 3.245,-2.535 4.867,-3.813 4.158,-3.296 8.295,-6.683 12.412,-10.15 1.237,-1.045 2.474,-2.048 3.711,-3.113 5.232,-4.481 10.423,-9.096 15.575,-13.841 1.104,-1.015 2.19,-2.069 3.285,-3.093 2.738,-2.566 5.496,-5.122 8.225,-7.758 l 73.619,73.619 c -30.461,26.718 -67.991,43.552 -108.145,48.551 z M 521.438,409.78 448.042,336.385 c 0.528,-0.579 0.993,-1.176 1.521,-1.754 6.104,-6.733 12.026,-13.517 17.664,-20.352 0.406,-0.497 0.771,-0.994 1.177,-1.49 5.171,-6.318 10.101,-12.676 14.846,-19.054 0.568,-0.75 1.196,-1.5 1.764,-2.251 0.711,0.294 1.472,0.507 2.191,0.791 4.726,1.896 9.512,3.62 14.359,5.202 1.409,0.467 2.818,0.943 4.238,1.379 5.657,1.734 11.376,3.306 17.166,4.625 0.842,0.192 1.694,0.334 2.525,0.517 5.143,1.104 10.313,2.028 15.516,2.808 1.47,0.213 2.94,0.447 4.411,0.64 5.901,0.76 11.813,1.358 17.755,1.683 0.173,0.011 0.345,0.041 0.509,0.051 -4.584,36.899 -19.167,71.59 -42.246,100.6 z M 460.575,108.805 c -0.954,0.213 -1.907,0.436 -2.869,0.669 -3.945,0.963 -7.94,2.038 -12.078,3.376 -0.101,0.031 -0.192,0.072 -0.283,0.102 -4.097,1.329 -8.296,2.901 -12.555,4.604 -1.034,0.406 -2.058,0.822 -3.103,1.248 -4.319,1.795 -8.721,3.732 -13.202,5.881 -0.527,0.264 -1.075,0.559 -1.623,0.822 -4.106,2.008 -8.274,4.188 -12.492,6.49 -1.064,0.578 -2.109,1.136 -3.184,1.734 -4.188,2.342 -8.416,4.786 -12.695,7.413 -0.183,-0.518 -0.406,-1.035 -0.588,-1.552 -1.227,-3.417 -2.343,-6.875 -3.387,-10.354 -0.305,-0.994 -0.649,-1.977 -0.933,-2.981 -1.257,-4.462 -2.373,-8.964 -3.327,-13.507 -0.233,-1.136 -0.405,-2.292 -0.628,-3.438 -0.659,-3.428 -1.258,-6.866 -1.734,-10.323 -0.233,-1.622 -0.405,-3.255 -0.598,-4.888 -0.345,-3.052 -0.639,-6.125 -0.852,-9.197 -0.061,-0.943 -0.111,-1.876 -0.162,-2.809 31.658,1.724 61.936,10.688 88.919,26.102 -0.862,0.172 -1.753,0.416 -2.626,0.608 z M 337.857,83.343 c 0.061,0.973 0.223,1.937 0.284,2.9 0.305,4.807 0.761,9.593 1.359,14.369 0.172,1.399 0.304,2.799 0.507,4.188 0.852,5.972 1.917,11.895 3.215,17.776 0.253,1.156 0.578,2.291 0.841,3.437 1.146,4.817 2.434,9.583 3.864,14.318 0.497,1.653 1.004,3.295 1.552,4.938 1.662,5.101 3.467,10.141 5.476,15.109 0.223,0.538 0.375,1.105 0.598,1.643 -0.76,0.558 -1.511,1.207 -2.261,1.765 -6.277,4.675 -12.533,9.532 -18.76,14.612 -0.608,0.497 -1.217,0.943 -1.815,1.44 -6.804,5.608 -13.558,11.509 -20.271,17.594 -0.588,0.537 -1.196,1.024 -1.794,1.561 l -73.406,-73.396 c 29.001,-23.078 63.701,-37.66 100.611,-42.254 z m -126.937,67.342 73.64,73.619 c -1.055,1.085 -1.987,2.21 -3.032,3.296 -6.135,6.409 -12.067,12.868 -17.796,19.418 -1.125,1.288 -2.312,2.555 -3.427,3.854 -6.5,7.565 -12.675,15.21 -18.597,22.917 -0.578,0.75 -1.237,1.48 -1.815,2.231 -0.518,-0.203 -1.064,-0.355 -1.572,-0.558 -4.928,-1.957 -9.907,-3.722 -14.946,-5.345 -1.633,-0.517 -3.266,-1.013 -4.908,-1.5 -4.583,-1.368 -9.228,-2.596 -13.893,-3.69 -1.227,-0.284 -2.433,-0.619 -3.66,-0.893 -5.77,-1.247 -11.57,-2.282 -17.421,-3.113 -1.409,-0.203 -2.829,-0.334 -4.249,-0.506 -4.624,-0.569 -9.258,-1.014 -13.903,-1.309 -0.983,-0.071 -1.967,-0.233 -2.95,-0.284 4.987,-40.156 21.8,-77.685 48.529,-108.137 z"
         inkscape:connector-curvature="0"
         style="fill:#800000;fill-opacity:1" />
      <path
         id="path7350"
         d="m 582.351,56.542 c 0,0 -12.614,-9.786 -24.255,0.832 -11.784,10.738 -1.43,24.854 -1.43,24.854 50.884,50.104 82.502,119.707 82.502,196.581 0,152.207 -123.836,276.041 -276.041,276.041 -76.874,0 -146.478,-31.618 -196.581,-82.502 0,0 -11.408,-10.455 -24.205,1.593 -12.797,12.278 -1.47,24.093 -1.47,24.093 56.675,57.465 135.363,93.159 222.256,93.159 1.764,0 3.508,-0.02 5.263,-0.051 169.819,-2.808 307.12,-141.843 307.12,-312.333 0,-86.894 -35.694,-165.583 -93.159,-222.267 z"
         inkscape:connector-curvature="0"
         style="fill:#800000;fill-opacity:1" />
      <path
         id="path7352"
         d="m 537.926,718.22 -146.243,0 0,-88.798 c 0,-10.029 -8.132,-18.172 -18.171,-18.172 -10.028,0 -18.171,8.143 -18.171,18.172 l 0,88.798 -146.225,0 c -10.039,0 -18.171,8.133 -18.171,18.172 0,10.028 8.132,18.171 18.171,18.171 l 328.81,0 c 10.04,0 18.172,-8.143 18.172,-18.171 0,-10.039 -8.132,-18.172 -18.172,-18.172 z"
         inkscape:connector-curvature="0"
         style="fill:#800000;fill-opacity:1" />
    </g>
  </g>
</svg>
